# xmcd
#
# Track frame offsets: 
#        150
#        19259
#        34793
#
# Disc length: 787 seconds
#
# Revision: 0
# Processed by: cddbd v1.5.1PL0 Copyright (c) Steve Scherf et al.
# Submitted via: ExactAudioCopy v0.95b3
#
DISCID=1c031103
DTITLE=Flux Capacitor - back in the daze
DYEAR=2003
DGENRE=Blues
TTITLE0=back in the daze (single)
TTITLE1=Straight out
TTITLE2=back in the daze (original)
EXTD=
EXTT0=
EXTT1=
EXTT2=
PLAYORDER=
